<svg width="22" height="22" viewBox="0 0 22 22" fill="none" xmlns="http://www.w3.org/2000/svg">
<path d="M5.16667 1V3.5M16.8333 1V3.5M1 18.5V6C1 5.33696 1.26339 4.70107 1.73223 4.23223C2.20107 3.76339 2.83696 3.5 3.5 3.5H18.5C19.163 3.5 19.7989 3.76339 20.2678 4.23223C20.7366 4.70107 21 5.33696 21 6V18.5M1 18.5C1 19.163 1.26339 19.7989 1.73223 20.2678C2.20107 20.7366 2.83696 21 3.5 21H18.5C19.163 21 19.7989 20.7366 20.2678 20.2678C20.7366 19.7989 21 19.163 21 18.5M1 18.5V10.1667C1 9.50363 1.26339 8.86774 1.73223 8.3989C2.20107 7.93006 2.83696 7.66667 3.5 7.66667H18.5C19.163 7.66667 19.7989 7.93006 20.2678 8.3989C20.7366 8.86774 21 9.50363 21 10.1667V18.5" stroke="white" stroke-width="1.5" stroke-linecap="round" stroke-linejoin="round"/>
</svg>
