<svg width="20" height="20" viewBox="0 0 20 20" fill="none" xmlns="http://www.w3.org/2000/svg">
<path d="M16.25 9.99995C16.25 8.97328 16.2117 7.95578 16.135 6.94828C16.076 6.15007 15.7323 5.39961 15.1663 4.83365C14.6003 4.2677 13.8499 3.92391 13.0517 3.86495C11.0201 3.71168 8.97989 3.71168 6.94833 3.86495C6.15012 3.92391 5.39966 4.2677 4.8337 4.83365C4.26775 5.39961 3.92396 6.15007 3.865 6.94828C3.85083 7.13162 3.83833 7.31578 3.82667 7.49995M16.25 9.99995L18.75 7.49995M16.25 9.99995L13.75 7.49995M3.75 9.99995C3.75 11.0266 3.78833 12.0441 3.865 13.0516C3.92396 13.8498 4.26775 14.6003 4.8337 15.1662C5.39966 15.7322 6.15012 16.076 6.94833 16.1349C8.97989 16.2883 11.0201 16.2883 13.0517 16.1349C13.8499 16.076 14.6003 15.7322 15.1663 15.1662C15.7323 14.6003 16.076 13.8498 16.135 13.0516C16.1492 12.8683 16.1617 12.6841 16.1733 12.4999M3.75 9.99995L6.25 12.4999M3.75 9.99995L1.25 12.4999" stroke="white" stroke-width="1.5" stroke-linecap="round" stroke-linejoin="round"/>
</svg>
