<svg width="22" height="22" viewBox="0 0 22 22" fill="none" xmlns="http://www.w3.org/2000/svg">
<path d="M3.4375 2.75V13.0625C3.4375 13.6095 3.6548 14.1341 4.04159 14.5209C4.42839 14.9077 4.95299 15.125 5.5 15.125H7.5625M3.4375 2.75H2.0625M3.4375 2.75H18.5625M7.5625 15.125H14.4375M7.5625 15.125L6.64583 17.875M18.5625 2.75H19.9375M18.5625 2.75V13.0625C18.5625 13.6095 18.3452 14.1341 17.9584 14.5209C17.5716 14.9077 17.047 15.125 16.5 15.125H14.4375M14.4375 15.125L15.3542 17.875M6.64583 17.875H15.3542M6.64583 17.875L6.1875 19.25M15.3542 17.875L15.8125 19.25M6.875 11L9.625 8.25L11.594 10.219C12.5191 8.89102 13.7245 7.78234 15.125 6.97125" stroke="white" stroke-width="1.5" stroke-linecap="round" stroke-linejoin="round"/>
</svg>
