<svg width="36" height="22" viewBox="0 0 36 22" fill="none" xmlns="http://www.w3.org/2000/svg">
<path fill-rule="evenodd" clip-rule="evenodd" d="M0 1.34375C0 0.601617 0.657582 0 1.46875 0H33.7812C34.5924 0 35.25 0.601617 35.25 1.34375C35.25 2.08588 34.5924 2.6875 33.7812 2.6875H1.46875C0.657582 2.6875 0 2.08588 0 1.34375ZM0 10.75C0 10.0079 0.657582 9.40625 1.46875 9.40625H33.7812C34.5924 9.40625 35.25 10.0079 35.25 10.75C35.25 11.4921 34.5924 12.0938 33.7812 12.0938H1.46875C0.657582 12.0938 0 11.4921 0 10.75ZM0 20.1562C0 19.4141 0.657582 18.8125 1.46875 18.8125H33.7812C34.5924 18.8125 35.25 19.4141 35.25 20.1562C35.25 20.8984 34.5924 21.5 33.7812 21.5H1.46875C0.657582 21.5 0 20.8984 0 20.1562Z" fill="#F2F2F2"/>
</svg>
