<svg width="353" height="166" viewBox="0 0 353 166" fill="none" xmlns="http://www.w3.org/2000/svg">
<mask id="path-1-inside-1_507_104" fill="white">
<path d="M99.0586 129H82.5547V106.656H24.5371V129H8.0332V83.4873C8.0332 76.8434 9.17578 70.7285 11.4609 65.1426C13.7461 59.5566 16.9199 54.7536 20.9824 50.7334C25.0449 46.7132 29.848 43.5817 35.3916 41.3389C40.9352 39.096 46.9867 37.9746 53.5459 37.9746H90.7432C91.8857 37.9746 92.9648 38.1862 93.9805 38.6094C94.9961 39.0326 95.8848 39.625 96.6465 40.3867C97.4082 41.1484 98.0007 42.0371 98.4238 43.0527C98.847 44.0684 99.0586 45.1475 99.0586 46.29V129ZM24.5371 90.1523H82.5547V54.4785H53.5459C53.0381 54.4785 51.959 54.5632 50.3086 54.7324C48.7005 54.8594 46.8174 55.2191 44.6592 55.8115C42.5433 56.404 40.3005 57.3138 37.9307 58.541C35.5609 59.7682 33.3815 61.4609 31.3926 63.6191C29.4036 65.7773 27.7533 68.4857 26.4414 71.7441C25.1719 74.9603 24.5371 78.8747 24.5371 83.4873V90.1523ZM208.111 120.685C208.111 121.869 207.9 122.97 207.477 123.985C207.053 125.001 206.461 125.89 205.699 126.651C204.98 127.371 204.112 127.942 203.097 128.365C202.081 128.788 200.981 129 199.796 129H140.255C138.731 129 137.081 128.831 135.304 128.492C133.569 128.111 131.834 127.54 130.099 126.778C128.406 126.017 126.777 125.043 125.211 123.858C123.645 122.631 122.249 121.171 121.021 119.479C119.837 117.743 118.884 115.755 118.165 113.512C117.446 111.227 117.086 108.666 117.086 105.831V61.1436C117.086 59.6201 117.255 57.9909 117.594 56.2559C117.975 54.4785 118.546 52.7435 119.308 51.0508C120.069 49.3158 121.064 47.6654 122.291 46.0996C123.518 44.5339 124.978 43.1585 126.671 41.9736C128.406 40.7464 130.395 39.7731 132.638 39.0537C134.881 38.3343 137.42 37.9746 140.255 37.9746H207.35V54.4785H140.255C138.097 54.4785 136.446 55.0498 135.304 56.1924C134.161 57.335 133.59 59.0277 133.59 61.2705V105.831C133.59 107.947 134.161 109.597 135.304 110.782C136.489 111.925 138.139 112.496 140.255 112.496H191.607V91.8027H147.682V75.1719H199.796C200.981 75.1719 202.081 75.4046 203.097 75.8701C204.112 76.2933 204.98 76.8857 205.699 77.6475C206.461 78.4092 207.053 79.2979 207.477 80.3135C207.9 81.2868 208.111 82.3447 208.111 83.4873V120.685ZM241.944 129H225.44V37.9746H241.944V129ZM348.712 102.213C348.712 105.471 348.289 108.412 347.442 111.036C346.638 113.618 345.559 115.903 344.205 117.892C342.851 119.881 341.264 121.573 339.444 122.97C337.625 124.366 335.742 125.509 333.795 126.397C331.848 127.286 329.859 127.942 327.828 128.365C325.839 128.788 323.956 129 322.179 129H258.512V112.496H322.179C325.353 112.496 327.807 111.565 329.542 109.703C331.319 107.841 332.208 105.344 332.208 102.213C332.208 100.689 331.975 99.293 331.51 98.0234C331.044 96.7539 330.367 95.6536 329.479 94.7227C328.632 93.7917 327.574 93.0723 326.305 92.5645C325.077 92.0566 323.702 91.8027 322.179 91.8027H284.22C281.554 91.8027 278.676 91.3372 275.587 90.4062C272.498 89.4329 269.62 87.8883 266.954 85.7725C264.33 83.6566 262.13 80.8848 260.353 77.457C258.618 74.0293 257.75 69.8398 257.75 64.8887C257.75 59.9375 258.618 55.7692 260.353 52.3838C262.13 48.9561 264.33 46.1842 266.954 44.0684C269.62 41.9102 272.498 40.3656 275.587 39.4346C278.676 38.4613 281.554 37.9746 284.22 37.9746H340.396V54.4785H284.22C281.088 54.4785 278.634 55.4307 276.856 57.335C275.121 59.2393 274.254 61.7572 274.254 64.8887C274.254 68.0625 275.121 70.5804 276.856 72.4424C278.634 74.262 281.088 75.1719 284.22 75.1719H322.179H322.306C324.083 75.2142 325.966 75.4681 327.955 75.9336C329.944 76.3568 331.912 77.0339 333.858 77.9648C335.847 78.8958 337.73 80.0807 339.508 81.5195C341.285 82.916 342.851 84.6087 344.205 86.5977C345.602 88.5866 346.702 90.8717 347.506 93.4531C348.31 96.0345 348.712 98.9544 348.712 102.213Z"/>
</mask>
<path d="M99.0586 129H82.5547V106.656H24.5371V129H8.0332V83.4873C8.0332 76.8434 9.17578 70.7285 11.4609 65.1426C13.7461 59.5566 16.9199 54.7536 20.9824 50.7334C25.0449 46.7132 29.848 43.5817 35.3916 41.3389C40.9352 39.096 46.9867 37.9746 53.5459 37.9746H90.7432C91.8857 37.9746 92.9648 38.1862 93.9805 38.6094C94.9961 39.0326 95.8848 39.625 96.6465 40.3867C97.4082 41.1484 98.0007 42.0371 98.4238 43.0527C98.847 44.0684 99.0586 45.1475 99.0586 46.29V129ZM24.5371 90.1523H82.5547V54.4785H53.5459C53.0381 54.4785 51.959 54.5632 50.3086 54.7324C48.7005 54.8594 46.8174 55.2191 44.6592 55.8115C42.5433 56.404 40.3005 57.3138 37.9307 58.541C35.5609 59.7682 33.3815 61.4609 31.3926 63.6191C29.4036 65.7773 27.7533 68.4857 26.4414 71.7441C25.1719 74.9603 24.5371 78.8747 24.5371 83.4873V90.1523ZM208.111 120.685C208.111 121.869 207.9 122.97 207.477 123.985C207.053 125.001 206.461 125.89 205.699 126.651C204.98 127.371 204.112 127.942 203.097 128.365C202.081 128.788 200.981 129 199.796 129H140.255C138.731 129 137.081 128.831 135.304 128.492C133.569 128.111 131.834 127.54 130.099 126.778C128.406 126.017 126.777 125.043 125.211 123.858C123.645 122.631 122.249 121.171 121.021 119.479C119.837 117.743 118.884 115.755 118.165 113.512C117.446 111.227 117.086 108.666 117.086 105.831V61.1436C117.086 59.6201 117.255 57.9909 117.594 56.2559C117.975 54.4785 118.546 52.7435 119.308 51.0508C120.069 49.3158 121.064 47.6654 122.291 46.0996C123.518 44.5339 124.978 43.1585 126.671 41.9736C128.406 40.7464 130.395 39.7731 132.638 39.0537C134.881 38.3343 137.42 37.9746 140.255 37.9746H207.35V54.4785H140.255C138.097 54.4785 136.446 55.0498 135.304 56.1924C134.161 57.335 133.59 59.0277 133.59 61.2705V105.831C133.59 107.947 134.161 109.597 135.304 110.782C136.489 111.925 138.139 112.496 140.255 112.496H191.607V91.8027H147.682V75.1719H199.796C200.981 75.1719 202.081 75.4046 203.097 75.8701C204.112 76.2933 204.98 76.8857 205.699 77.6475C206.461 78.4092 207.053 79.2979 207.477 80.3135C207.9 81.2868 208.111 82.3447 208.111 83.4873V120.685ZM241.944 129H225.44V37.9746H241.944V129ZM348.712 102.213C348.712 105.471 348.289 108.412 347.442 111.036C346.638 113.618 345.559 115.903 344.205 117.892C342.851 119.881 341.264 121.573 339.444 122.97C337.625 124.366 335.742 125.509 333.795 126.397C331.848 127.286 329.859 127.942 327.828 128.365C325.839 128.788 323.956 129 322.179 129H258.512V112.496H322.179C325.353 112.496 327.807 111.565 329.542 109.703C331.319 107.841 332.208 105.344 332.208 102.213C332.208 100.689 331.975 99.293 331.51 98.0234C331.044 96.7539 330.367 95.6536 329.479 94.7227C328.632 93.7917 327.574 93.0723 326.305 92.5645C325.077 92.0566 323.702 91.8027 322.179 91.8027H284.22C281.554 91.8027 278.676 91.3372 275.587 90.4062C272.498 89.4329 269.62 87.8883 266.954 85.7725C264.33 83.6566 262.13 80.8848 260.353 77.457C258.618 74.0293 257.75 69.8398 257.75 64.8887C257.75 59.9375 258.618 55.7692 260.353 52.3838C262.13 48.9561 264.33 46.1842 266.954 44.0684C269.62 41.9102 272.498 40.3656 275.587 39.4346C278.676 38.4613 281.554 37.9746 284.22 37.9746H340.396V54.4785H284.22C281.088 54.4785 278.634 55.4307 276.856 57.335C275.121 59.2393 274.254 61.7572 274.254 64.8887C274.254 68.0625 275.121 70.5804 276.856 72.4424C278.634 74.262 281.088 75.1719 284.22 75.1719H322.179H322.306C324.083 75.2142 325.966 75.4681 327.955 75.9336C329.944 76.3568 331.912 77.0339 333.858 77.9648C335.847 78.8958 337.73 80.0807 339.508 81.5195C341.285 82.916 342.851 84.6087 344.205 86.5977C345.602 88.5866 346.702 90.8717 347.506 93.4531C348.31 96.0345 348.712 98.9544 348.712 102.213Z" fill="white"/>
<path d="M99.0586 129V134H104.059V129H99.0586ZM82.5547 129H77.5547V134H82.5547V129ZM82.5547 106.656H87.5547V101.656H82.5547V106.656ZM24.5371 106.656V101.656H19.5371V106.656H24.5371ZM24.5371 129V134H29.5371V129H24.5371ZM8.0332 129H3.0332V134H8.0332V129ZM35.3916 41.3389L33.5164 36.7038L35.3916 41.3389ZM24.5371 90.1523H19.5371V95.1523H24.5371V90.1523ZM82.5547 90.1523V95.1523H87.5547V90.1523H82.5547ZM82.5547 54.4785H87.5547V49.4785H82.5547V54.4785ZM50.3086 54.7324L50.7021 59.7169L50.7605 59.7123L50.8187 59.7063L50.3086 54.7324ZM44.6592 55.8115L43.3356 50.9899L43.3233 50.9933L43.311 50.9967L44.6592 55.8115ZM31.3926 63.6191L27.7158 60.2307L31.3926 63.6191ZM26.4414 71.7441L21.8032 69.8768L21.7969 69.8925L21.7906 69.9083L26.4414 71.7441ZM99.0586 124H82.5547V134H99.0586V124ZM87.5547 129V106.656H77.5547V129H87.5547ZM82.5547 101.656H24.5371V111.656H82.5547V101.656ZM19.5371 106.656V129H29.5371V106.656H19.5371ZM24.5371 124H8.0332V134H24.5371V124ZM13.0332 129V83.4873H3.0332V129H13.0332ZM13.0332 83.4873C13.0332 77.427 14.073 71.9629 16.0887 67.0357L6.8332 63.2494C4.27853 69.4942 3.0332 76.2598 3.0332 83.4873H13.0332ZM16.0887 67.0357C18.1336 62.0371 20.9416 57.8081 24.4994 54.2874L17.4654 47.1794C12.8982 51.699 9.35861 57.0762 6.8332 63.2494L16.0887 67.0357ZM24.4994 54.2874C28.0699 50.7541 32.3077 47.9803 37.2668 45.9739L33.5164 36.7038C27.3883 39.1831 22.02 42.6723 17.4654 47.1794L24.4994 54.2874ZM37.2668 45.9739C42.1594 43.9945 47.5669 42.9746 53.5459 42.9746V32.9746C46.4064 32.9746 39.7111 34.1976 33.5164 36.7038L37.2668 45.9739ZM53.5459 42.9746H90.7432V32.9746H53.5459V42.9746ZM90.7432 42.9746C91.2515 42.9746 91.6746 43.0653 92.0574 43.2248L95.9035 33.994C94.2551 33.3071 92.52 32.9746 90.7432 32.9746V42.9746ZM92.0574 43.2248C92.4834 43.4022 92.821 43.6323 93.1109 43.9223L100.182 36.8512C98.9485 35.6177 97.5088 34.6629 95.9035 33.994L92.0574 43.2248ZM93.1109 43.9223C93.4009 44.2122 93.631 44.5498 93.8084 44.9758L103.039 41.1297C102.37 39.5244 101.416 38.0847 100.182 36.8512L93.1109 43.9223ZM93.8084 44.9758C93.9679 45.3586 94.0586 45.7817 94.0586 46.29H104.059C104.059 44.5132 103.726 42.7781 103.039 41.1297L93.8084 44.9758ZM94.0586 46.29V129H104.059V46.29H94.0586ZM24.5371 95.1523H82.5547V85.1523H24.5371V95.1523ZM87.5547 90.1523V54.4785H77.5547V90.1523H87.5547ZM82.5547 49.4785H53.5459V59.4785H82.5547V49.4785ZM53.5459 49.4785C52.7345 49.4785 51.39 49.5953 49.7985 49.7585L50.8187 59.7063C51.6227 59.6239 52.2619 59.5647 52.7467 59.5267C52.9886 59.5077 53.1792 59.495 53.3242 59.4873C53.396 59.4835 53.451 59.4811 53.4912 59.4798C53.5326 59.4785 53.5492 59.4785 53.5459 59.4785V49.4785ZM49.9151 49.7479C47.8981 49.9072 45.6905 50.3434 43.3356 50.9899L45.9828 60.6332C47.9442 60.0947 49.5029 59.8116 50.7021 59.7169L49.9151 49.7479ZM43.311 50.9967C40.805 51.6984 38.2425 52.7489 35.6314 54.101L40.2299 62.981C42.3584 61.8787 44.2816 61.1095 46.0073 60.6263L43.311 50.9967ZM35.6314 54.101C32.6957 55.6213 30.0599 57.6871 27.7158 60.2307L35.0694 67.0075C36.7031 65.2348 38.4261 63.9151 40.2299 62.981L35.6314 54.101ZM27.7158 60.2307C25.2451 62.9117 23.2976 66.165 21.8032 69.8768L31.0796 73.6115C32.209 70.8064 33.5622 68.643 35.0694 67.0075L27.7158 60.2307ZM21.7906 69.9083C20.2274 73.8685 19.5371 78.4441 19.5371 83.4873H29.5371C29.5371 79.3052 30.1164 76.0521 31.0922 73.58L21.7906 69.9083ZM19.5371 83.4873V90.1523H29.5371V83.4873H19.5371ZM205.699 126.651L202.164 123.116L205.699 126.651ZM135.304 128.492L134.232 133.376L134.3 133.391L134.368 133.404L135.304 128.492ZM130.099 126.778L128.047 131.338L128.068 131.347L128.089 131.357L130.099 126.778ZM125.211 123.858L122.127 127.794L122.16 127.82L122.194 127.845L125.211 123.858ZM121.021 119.479L116.892 122.298L116.932 122.356L116.973 122.413L121.021 119.479ZM118.165 113.512L113.396 115.013L113.4 115.026L113.404 115.039L118.165 113.512ZM117.594 56.2559L112.705 55.2082L112.695 55.2532L112.686 55.2983L117.594 56.2559ZM119.308 51.0508L123.867 53.1026L123.877 53.0817L123.886 53.0607L119.308 51.0508ZM126.671 41.9736L129.538 46.0698L129.548 46.0628L129.558 46.0557L126.671 41.9736ZM207.35 37.9746H212.35V32.9746H207.35V37.9746ZM207.35 54.4785V59.4785H212.35V54.4785H207.35ZM135.304 110.782L131.704 114.253L131.768 114.318L131.833 114.381L135.304 110.782ZM191.607 112.496V117.496H196.607V112.496H191.607ZM191.607 91.8027H196.607V86.8027H191.607V91.8027ZM147.682 91.8027H142.682V96.8027H147.682V91.8027ZM147.682 75.1719V70.1719H142.682V75.1719H147.682ZM203.097 75.8701L201.013 80.4154L201.093 80.4519L201.174 80.4855L203.097 75.8701ZM205.699 77.6475L202.064 81.0806L202.113 81.1325L202.164 81.183L205.699 77.6475ZM207.477 80.3135L202.861 82.2366L202.876 82.2719L202.891 82.3071L207.477 80.3135ZM203.111 120.685C203.111 121.261 203.011 121.702 202.861 122.062L212.092 125.908C212.788 124.238 213.111 122.478 213.111 120.685H203.111ZM202.861 122.062C202.684 122.488 202.454 122.826 202.164 123.116L209.235 130.187C210.468 128.953 211.423 127.514 212.092 125.908L202.861 122.062ZM202.164 123.116C201.943 123.337 201.636 123.557 201.174 123.75L205.02 132.981C206.589 132.327 208.017 131.405 209.235 130.187L202.164 123.116ZM201.174 123.75C200.813 123.9 200.372 124 199.796 124V134C201.59 134 203.349 133.677 205.02 132.981L201.174 123.75ZM199.796 124H140.255V134H199.796V124ZM140.255 124C139.097 124 137.764 123.871 136.239 123.58L134.368 133.404C136.398 133.791 138.366 134 140.255 134V124ZM136.376 123.608C134.983 123.303 133.562 122.838 132.109 122.2L128.089 131.357C130.106 132.242 132.154 132.92 134.232 133.376L136.376 123.608ZM132.15 122.219C130.819 121.62 129.512 120.843 128.228 119.871L122.194 127.845C124.042 129.244 125.993 130.414 128.047 131.338L132.15 122.219ZM128.295 119.923C127.114 118.997 126.038 117.879 125.07 116.544L116.973 122.413C118.46 124.464 120.176 126.265 122.127 127.794L128.295 119.923ZM125.15 116.659C124.268 115.367 123.516 113.823 122.926 111.985L113.404 115.039C114.253 117.686 115.405 120.12 116.892 122.298L125.15 116.659ZM122.934 112.01C122.393 110.291 122.086 108.248 122.086 105.831H112.086C112.086 109.085 112.498 112.163 113.396 115.013L122.934 112.01ZM122.086 105.831V61.1436H112.086V105.831H122.086ZM122.086 61.1436C122.086 59.9878 122.215 58.6819 122.501 57.2134L112.686 55.2983C112.296 57.2999 112.086 59.2524 112.086 61.1436H122.086ZM122.483 57.3035C122.788 55.8788 123.247 54.48 123.867 53.1026L114.748 48.999C113.844 51.007 113.161 53.0782 112.705 55.2082L122.483 57.3035ZM123.886 53.0607C124.471 51.7281 125.245 50.4364 126.226 49.184L118.356 43.0152C116.883 44.8943 115.668 46.9035 114.729 49.0408L123.886 53.0607ZM126.226 49.184C127.138 48.0211 128.234 46.9829 129.538 46.0698L123.804 37.8775C121.723 39.3341 119.899 41.0466 118.356 43.0152L126.226 49.184ZM129.558 46.0557C130.835 45.1528 132.355 44.3952 134.165 43.8148L131.111 34.2926C128.434 35.151 125.977 36.34 123.784 37.8916L129.558 46.0557ZM134.165 43.8148C135.825 43.2821 137.836 42.9746 140.255 42.9746V32.9746C137.003 32.9746 133.936 33.3865 131.111 34.2926L134.165 43.8148ZM140.255 42.9746H207.35V32.9746H140.255V42.9746ZM202.35 37.9746V54.4785H212.35V37.9746H202.35ZM207.35 49.4785H140.255V59.4785H207.35V49.4785ZM140.255 49.4785C137.23 49.4785 134.13 50.2952 131.768 52.6568L138.839 59.7279C138.844 59.7234 138.851 59.7162 138.871 59.7042C138.892 59.6914 138.941 59.664 139.034 59.6319C139.226 59.5655 139.606 59.4785 140.255 59.4785V49.4785ZM131.768 52.6568C129.373 55.0519 128.59 58.2255 128.59 61.2705H138.59C138.59 59.8299 138.949 59.618 138.839 59.7279L131.768 52.6568ZM128.59 61.2705V105.831H138.59V61.2705H128.59ZM128.59 105.831C128.59 108.857 129.428 111.892 131.704 114.253L138.903 107.312C138.895 107.303 138.59 107.037 138.59 105.831H128.59ZM131.833 114.381C134.194 116.658 137.229 117.496 140.255 117.496V107.496C139.049 107.496 138.783 107.191 138.774 107.183L131.833 114.381ZM140.255 117.496H191.607V107.496H140.255V117.496ZM196.607 112.496V91.8027H186.607V112.496H196.607ZM191.607 86.8027H147.682V96.8027H191.607V86.8027ZM152.682 91.8027V75.1719H142.682V91.8027H152.682ZM147.682 80.1719H199.796V70.1719H147.682V80.1719ZM199.796 80.1719C200.306 80.1719 200.691 80.2675 201.013 80.4154L205.18 71.3248C203.471 70.5417 201.655 70.1719 199.796 70.1719V80.1719ZM201.174 80.4855C201.575 80.6528 201.85 80.8541 202.064 81.0806L209.334 74.2143C208.109 72.9174 206.65 71.9338 205.02 71.2547L201.174 80.4855ZM202.164 81.183C202.454 81.4729 202.684 81.8106 202.861 82.2366L212.092 78.3904C211.423 76.7851 210.468 75.3455 209.235 74.1119L202.164 81.183ZM202.891 82.3071C203.02 82.6043 203.111 82.9775 203.111 83.4873H213.111C213.111 81.712 212.779 79.9692 212.062 78.3198L202.891 82.3071ZM203.111 83.4873V120.685H213.111V83.4873H203.111ZM241.944 129V134H246.944V129H241.944ZM225.44 129H220.44V134H225.44V129ZM225.44 37.9746V32.9746H220.44V37.9746H225.44ZM241.944 37.9746H246.944V32.9746H241.944V37.9746ZM241.944 124H225.44V134H241.944V124ZM230.44 129V37.9746H220.44V129H230.44ZM225.44 42.9746H241.944V32.9746H225.44V42.9746ZM236.944 37.9746V129H246.944V37.9746H236.944ZM347.442 111.036L342.684 109.501L342.676 109.525L342.669 109.549L347.442 111.036ZM327.828 128.365L326.808 123.47L326.798 123.472L326.788 123.475L327.828 128.365ZM258.512 129H253.512V134H258.512V129ZM258.512 112.496V107.496H253.512V112.496H258.512ZM329.542 109.703L325.925 106.251L325.904 106.272L325.884 106.294L329.542 109.703ZM329.479 94.7227L325.779 98.086L325.82 98.131L325.862 98.175L329.479 94.7227ZM326.305 92.5645L324.393 97.1845L324.42 97.1958L324.448 97.2068L326.305 92.5645ZM275.587 90.4062L274.084 95.1751L274.114 95.1845L274.144 95.1936L275.587 90.4062ZM266.954 85.7725L263.815 89.6645L263.831 89.6768L263.846 89.6889L266.954 85.7725ZM260.353 77.457L255.891 79.7151L255.903 79.7369L255.914 79.7586L260.353 77.457ZM260.353 52.3838L255.914 50.0822L255.908 50.0928L255.903 50.1033L260.353 52.3838ZM266.954 44.0684L270.093 47.9604L270.1 47.9546L266.954 44.0684ZM275.587 39.4346L277.03 44.2219L277.06 44.2129L277.089 44.2035L275.587 39.4346ZM340.396 37.9746H345.396V32.9746H340.396V37.9746ZM340.396 54.4785V59.4785H345.396V54.4785H340.396ZM276.856 57.335L273.201 53.9234L273.181 53.9453L273.16 53.9675L276.856 57.335ZM276.856 72.4424L273.198 75.851L273.238 75.894L273.28 75.9361L276.856 72.4424ZM322.306 75.1719L322.425 70.1733L322.365 70.1719H322.306V75.1719ZM327.955 75.9336L326.816 80.802L326.865 80.8136L326.915 80.8241L327.955 75.9336ZM333.858 77.9648L331.701 82.4755L331.72 82.4845L331.739 82.4933L333.858 77.9648ZM339.508 81.5195L336.362 85.4058L336.39 85.4286L336.419 85.4511L339.508 81.5195ZM344.205 86.5977L340.072 89.4116L340.092 89.4414L340.113 89.4708L344.205 86.5977ZM343.712 102.213C343.712 105.042 343.344 107.454 342.684 109.501L352.201 112.571C353.233 109.371 353.712 105.9 353.712 102.213H343.712ZM342.669 109.549C341.994 111.716 341.116 113.544 340.072 115.078L348.338 120.706C350.002 118.261 351.283 115.519 352.216 112.523L342.669 109.549ZM340.072 115.078C339.003 116.649 337.778 117.946 336.4 119.003L342.488 126.936C344.75 125.2 346.699 123.112 348.338 120.706L340.072 115.078ZM336.4 119.003C334.859 120.186 333.298 121.128 331.718 121.849L335.871 130.946C338.185 129.89 340.391 128.546 342.488 126.936L336.4 119.003ZM331.718 121.849C330.099 122.588 328.464 123.125 326.808 123.47L328.848 133.26C331.254 132.759 333.597 131.984 335.871 130.946L331.718 121.849ZM326.788 123.475C325.093 123.835 323.561 124 322.179 124V134C324.352 134 326.586 133.742 328.869 133.256L326.788 123.475ZM322.179 124H258.512V134H322.179V124ZM263.512 129V112.496H253.512V129H263.512ZM258.512 117.496H322.179V107.496H258.512V117.496ZM322.179 117.496C326.373 117.496 330.295 116.229 333.2 113.112L325.884 106.294C325.318 106.901 324.332 107.496 322.179 107.496V117.496ZM333.159 113.156C336.008 110.17 337.208 106.336 337.208 102.213H327.208C327.208 104.353 326.63 105.512 325.925 106.251L333.159 113.156ZM337.208 102.213C337.208 100.176 336.896 98.1883 336.204 96.3022L326.815 99.7447C327.055 100.398 327.208 101.203 327.208 102.213H337.208ZM336.204 96.3022C335.514 94.421 334.482 92.7232 333.095 91.2703L325.862 98.175C326.252 98.5841 326.574 99.0868 326.815 99.7447L336.204 96.3022ZM333.178 91.3593C331.779 89.8205 330.072 88.6863 328.162 87.9221L324.448 97.2068C325.076 97.4582 325.485 97.7628 325.779 98.086L333.178 91.3593ZM328.216 87.9444C326.301 87.1516 324.262 86.8027 322.179 86.8027V96.8027C323.142 96.8027 323.854 96.9617 324.393 97.1845L328.216 87.9444ZM322.179 86.8027H284.22V96.8027H322.179V86.8027ZM284.22 86.8027C282.132 86.8027 279.746 86.4374 277.03 85.6189L274.144 95.1936C277.607 96.237 280.975 96.8027 284.22 96.8027V86.8027ZM277.089 85.6374C274.612 84.8569 272.274 83.6116 270.062 81.856L263.846 89.6889C266.966 92.1651 270.383 94.009 274.084 95.1751L277.089 85.6374ZM270.093 81.8804C268.081 80.2578 266.296 78.0578 264.791 75.1554L255.914 79.7586C257.964 83.7118 260.58 87.0554 263.815 89.6645L270.093 81.8804ZM264.814 75.199C263.52 72.6437 262.75 69.2746 262.75 64.8887H252.75C252.75 70.4051 253.715 75.4149 255.891 79.7151L264.814 75.199ZM262.75 64.8887C262.75 60.4996 263.521 57.1637 264.802 54.6642L255.903 50.1033C253.714 54.3747 252.75 59.3754 252.75 64.8887H262.75ZM264.791 54.6854C266.296 51.783 268.081 49.583 270.093 47.9604L263.815 40.1763C260.58 42.7855 257.964 46.1291 255.914 50.0822L264.791 54.6854ZM270.1 47.9546C272.294 46.1783 274.6 44.9542 277.03 44.2219L274.144 34.6472C270.396 35.7769 266.946 37.642 263.808 40.1821L270.1 47.9546ZM277.089 44.2035C279.793 43.3516 282.159 42.9746 284.22 42.9746V32.9746C280.948 32.9746 277.559 33.5709 274.084 34.6657L277.089 44.2035ZM284.22 42.9746H340.396V32.9746H284.22V42.9746ZM335.396 37.9746V54.4785H345.396V37.9746H335.396ZM340.396 49.4785H284.22V59.4785H340.396V49.4785ZM284.22 49.4785C280.005 49.4785 276.113 50.8038 273.201 53.9234L280.512 60.7466C281.155 60.0575 282.171 59.4785 284.22 59.4785V49.4785ZM273.16 53.9675C270.414 56.9819 269.254 60.7937 269.254 64.8887H279.254C279.254 62.7206 279.829 61.4966 280.552 60.7024L273.16 53.9675ZM269.254 64.8887C269.254 69.0007 270.401 72.8493 273.198 75.851L280.514 69.0338C279.841 68.3115 279.254 67.1243 279.254 64.8887H269.254ZM273.28 75.9361C276.207 78.9328 280.073 80.1719 284.22 80.1719V70.1719C282.103 70.1719 281.061 69.5913 280.433 68.9487L273.28 75.9361ZM284.22 80.1719H322.179V70.1719H284.22V80.1719ZM322.179 80.1719H322.306V70.1719H322.179V80.1719ZM322.187 80.1705C323.574 80.2035 325.113 80.4036 326.816 80.802L329.095 71.0652C326.819 70.5326 324.592 70.2249 322.425 70.1733L322.187 80.1705ZM326.915 80.8241C328.495 81.1603 330.089 81.7044 331.701 82.4755L336.016 73.4542C333.735 72.3633 331.393 71.5532 328.996 71.0431L326.915 80.8241ZM331.739 82.4933C333.346 83.2456 334.886 84.2113 336.362 85.4058L342.654 77.6333C340.575 75.9502 338.349 74.5461 335.978 73.4364L331.739 82.4933ZM336.419 85.4511C337.768 86.511 338.988 87.8192 340.072 89.4116L348.338 83.7837C346.714 81.3983 344.803 79.3211 342.597 77.5879L336.419 85.4511ZM340.113 89.4708C341.18 90.991 342.065 92.7982 342.732 94.94L352.28 91.9662C351.339 88.9453 350.023 86.1822 348.297 83.7245L340.113 89.4708ZM342.732 94.94C343.359 96.9531 343.712 99.3587 343.712 102.213H353.712C353.712 98.5501 353.261 95.1159 352.28 91.9662L342.732 94.94Z" fill="white" mask="url(#path-1-inside-1_507_104)"/>
</svg>
