<svg width="664" height="550" viewBox="0 0 664 550" fill="none" xmlns="http://www.w3.org/2000/svg">
<path d="M8.95531 338.135C11.2224 331.069 10.9356 323.341 8.15191 316.492C7.87559 315.814 8.86663 315.387 9.1426 316.065C12.027 323.197 12.3104 331.24 9.93614 338.588C9.70939 339.288 8.72979 338.831 8.95531 338.135Z" fill="white"/>
<path d="M589.305 17.0835H437.391V27.6185C437.389 28.1579 437.561 28.6814 437.877 29.0991C437.571 37.3335 437.391 47.8456 437.391 59.2689V340.923C437.391 367.323 438.374 388.803 439.578 388.803H587.118C588.323 388.803 589.305 367.323 589.305 340.923V59.2689C589.305 47.8456 589.125 37.3335 588.819 29.0991C589.136 28.6814 589.307 28.1579 589.305 27.6185L589.305 17.0835Z" fill="white"/>
<path d="M587.118 389.942H439.578C438.428 389.942 437.669 389.942 436.978 374.819C436.563 365.744 436.334 353.706 436.334 340.923V59.2692C436.334 48.2287 436.507 37.498 436.821 29.0535C437.018 23.9834 437.243 19.9221 437.491 16.9809C437.976 11.2229 438.438 10.2502 439.578 10.2502H587.118C588.258 10.2502 588.72 11.2229 589.206 16.9809C589.453 19.9332 589.678 23.9945 589.874 29.0513L589.875 29.0535C590.189 37.4891 590.361 48.2198 590.361 59.2692V340.923C590.361 353.706 590.133 365.744 589.718 374.819C589.028 389.942 588.268 389.942 587.118 389.942ZM440.178 387.664H586.518C587.282 384.551 588.248 367.653 588.248 340.923V59.2692C588.248 48.2499 588.076 37.5525 587.763 29.1469C587.569 24.1263 587.346 20.1023 587.101 17.1866C587.007 15.6205 586.808 14.0637 586.508 12.5281H440.188C439.888 14.0637 439.689 15.6205 439.595 17.1866C439.351 20.0912 439.128 24.1152 438.933 29.1469C438.62 37.5597 438.447 48.2582 438.447 59.2692V340.923C438.447 367.652 439.413 384.551 440.178 387.664Z" fill="#E4E4E4"/>
<path d="M587.118 11.3889H439.578C438.998 11.3901 438.443 11.6389 438.033 12.0807C437.623 12.5226 437.392 13.1216 437.391 13.7465V27.6185C437.389 28.1579 437.561 28.6814 437.877 29.0991C438.083 29.3722 438.342 29.5925 438.636 29.7442C438.93 29.8959 439.252 29.9751 439.578 29.976H587.118C587.444 29.975 587.766 29.8958 588.06 29.7441C588.354 29.5924 588.614 29.3721 588.819 29.0991C589.136 28.6814 589.307 28.1579 589.305 27.6185V13.7465C589.304 13.1216 589.073 12.5227 588.663 12.0808C588.253 11.6389 587.698 11.3901 587.118 11.3889Z" fill="#E1E1E1"/>
<path d="M450.09 23.3534C451.805 23.3534 453.195 21.8545 453.195 20.0055C453.195 18.1564 451.805 16.6575 450.09 16.6575C448.374 16.6575 446.984 18.1564 446.984 20.0055C446.984 21.8545 448.374 23.3534 450.09 23.3534Z" fill="white"/>
<path d="M461.878 23.3534C463.593 23.3534 464.984 21.8545 464.984 20.0055C464.984 18.1564 463.593 16.6575 461.878 16.6575C460.163 16.6575 458.772 18.1564 458.772 20.0055C458.772 21.8545 460.163 23.3534 461.878 23.3534Z" fill="white"/>
<path d="M473.667 23.3534C475.382 23.3534 476.772 21.8545 476.772 20.0055C476.772 18.1564 475.382 16.6575 473.667 16.6575C471.951 16.6575 470.561 18.1564 470.561 20.0055C470.561 21.8545 471.951 23.3534 473.667 23.3534Z" fill="white"/>
<path d="M575.571 15.5347H561.994C561.729 15.5366 561.475 15.6512 561.287 15.8537C561.099 16.0562 560.993 16.3303 560.991 16.6166C560.987 16.7797 561.023 16.9409 561.097 17.0836C561.177 17.267 561.304 17.4221 561.463 17.531C561.622 17.6398 561.806 17.6979 561.994 17.6986H575.571C575.761 17.6996 575.947 17.6423 576.108 17.5334C576.269 17.4245 576.398 17.2685 576.479 17.0836C576.544 16.938 576.577 16.7781 576.574 16.6166C576.574 16.4745 576.549 16.3338 576.498 16.2025C576.448 16.0711 576.374 15.9518 576.28 15.8513C576.187 15.7509 576.077 15.6712 575.955 15.6168C575.833 15.5625 575.702 15.5346 575.571 15.5347Z" fill="white"/>
<path d="M575.571 19.6008H561.994C561.728 19.6008 561.473 19.7148 561.285 19.9177C561.096 20.1206 560.991 20.3958 560.991 20.6828C560.991 20.9698 561.096 21.245 561.285 21.4479C561.473 21.6508 561.728 21.7648 561.994 21.7648H575.571C575.837 21.7648 576.092 21.6508 576.28 21.4479C576.468 21.245 576.574 20.9698 576.574 20.6828C576.574 20.3958 576.468 20.1206 576.28 19.9177C576.092 19.7148 575.837 19.6008 575.571 19.6008Z" fill="white"/>
<path d="M575.571 23.6667H561.994C561.728 23.6667 561.473 23.7808 561.285 23.9837C561.096 24.1866 560.991 24.4618 560.991 24.7487C560.991 25.0357 561.096 25.3109 561.285 25.5138C561.473 25.7167 561.728 25.8307 561.994 25.8307H575.571C575.837 25.8307 576.092 25.7167 576.28 25.5138C576.468 25.3109 576.574 25.0357 576.574 24.7487C576.574 24.4618 576.468 24.1866 576.28 23.9837C576.092 23.7808 575.837 23.6667 575.571 23.6667Z" fill="white"/>
<path d="M528.028 60.3853H500.094C498.693 60.3859 497.35 60.986 496.359 62.0538C495.369 63.1216 494.812 64.5697 494.812 66.0798V92.161C494.814 93.6705 495.371 95.1175 496.361 96.1849C497.351 97.2523 498.694 97.8531 500.094 97.8556H528.028C529.428 97.8512 530.769 97.2498 531.759 96.1828C532.748 95.1158 533.306 93.67 533.31 92.161V66.0798C533.308 64.5703 532.751 63.1233 531.761 62.0559C530.77 60.9885 529.428 60.3877 528.028 60.3853Z" fill="#FFA800"/>
<path d="M562.734 114.894H465.378C464.742 114.894 464.132 115.166 463.682 115.651C463.232 116.136 462.979 116.793 462.979 117.479C462.979 118.165 463.232 118.822 463.682 119.307C464.132 119.792 464.742 120.064 465.378 120.064H562.734C563.37 120.064 563.98 119.792 564.43 119.307C564.88 118.822 565.132 118.165 565.132 117.479C565.132 116.793 564.88 116.136 564.43 115.651C563.98 115.166 563.37 114.894 562.734 114.894Z" fill="#E4E4E4"/>
<path d="M502.355 127.012H465.378C464.742 127.012 464.132 127.284 463.682 127.769C463.232 128.254 462.979 128.912 462.979 129.597C462.979 130.283 463.232 130.941 463.682 131.425C464.132 131.91 464.742 132.183 465.378 132.183H502.355C502.991 132.183 503.601 131.91 504.051 131.425C504.501 130.941 504.754 130.283 504.754 129.597C504.754 128.912 504.501 128.254 504.051 127.769C503.601 127.284 502.991 127.012 502.355 127.012Z" fill="#E4E4E4"/>
<path d="M528.028 173.138H500.094C498.693 173.139 497.35 173.739 496.359 174.807C495.369 175.874 494.812 177.322 494.812 178.833V204.914C494.814 206.423 495.371 207.87 496.361 208.938C497.351 210.005 498.694 210.606 500.094 210.608H528.028C529.428 210.604 530.769 210.002 531.759 208.936C532.748 207.869 533.306 206.423 533.31 204.914V178.833C533.308 177.323 532.751 175.876 531.761 174.809C530.77 173.741 529.428 173.14 528.028 173.138Z" fill="#FFA800"/>
<path d="M562.734 227.646H465.378C464.742 227.646 464.132 227.919 463.682 228.404C463.232 228.889 462.979 229.546 462.979 230.232C462.979 230.917 463.232 231.575 463.682 232.06C464.132 232.545 464.742 232.817 465.378 232.817H562.734C563.37 232.817 563.98 232.545 564.43 232.06C564.88 231.575 565.132 230.917 565.132 230.232C565.132 229.546 564.88 228.889 564.43 228.404C563.98 227.919 563.37 227.646 562.734 227.646Z" fill="#E4E4E4"/>
<path d="M502.355 239.765H465.378C464.742 239.765 464.132 240.037 463.682 240.522C463.232 241.007 462.979 241.664 462.979 242.35C462.979 243.036 463.232 243.693 463.682 244.178C464.132 244.663 464.742 244.935 465.378 244.935H502.355C502.991 244.935 503.601 244.663 504.051 244.178C504.501 243.693 504.754 243.036 504.754 242.35C504.754 241.664 504.501 241.007 504.051 240.522C503.601 240.037 502.991 239.765 502.355 239.765Z" fill="#E4E4E4"/>
<path d="M528.028 285.891H500.094C498.693 285.891 497.35 286.491 496.359 287.559C495.369 288.627 494.812 290.075 494.812 291.585V317.666C494.814 319.176 495.371 320.623 496.361 321.69C497.351 322.758 498.694 323.358 500.094 323.361H528.028C529.428 323.357 530.769 322.755 531.759 321.688C532.748 320.621 533.306 319.175 533.31 317.666V291.585C533.308 290.076 532.751 288.629 531.761 287.561C530.77 286.494 529.428 285.893 528.028 285.891Z" fill="#FFA800"/>
<path d="M562.734 340.399H465.378C464.742 340.399 464.132 340.671 463.682 341.156C463.232 341.641 462.979 342.299 462.979 342.984C462.979 343.67 463.232 344.328 463.682 344.812C464.132 345.297 464.742 345.57 465.378 345.57H562.734C563.37 345.57 563.98 345.297 564.43 344.812C564.88 344.328 565.132 343.67 565.132 342.984C565.132 342.299 564.88 341.641 564.43 341.156C563.98 340.671 563.37 340.399 562.734 340.399Z" fill="#E4E4E4"/>
<path d="M502.355 352.517H465.378C464.742 352.517 464.132 352.789 463.682 353.274C463.232 353.759 462.979 354.417 462.979 355.102C462.979 355.788 463.232 356.446 463.682 356.931C464.132 357.415 464.742 357.688 465.378 357.688H502.355C502.991 357.688 503.601 357.415 504.051 356.931C504.501 356.446 504.754 355.788 504.754 355.102C504.754 354.417 504.501 353.759 504.051 353.274C503.601 352.789 502.991 352.517 502.355 352.517Z" fill="#E4E4E4"/>
<path d="M395.965 3.49624C395.964 2.87137 395.734 2.27243 395.324 1.83056C394.914 1.38869 394.358 1.1399 393.779 1.13867H3.24369C2.66399 1.13988 2.10835 1.38864 1.69841 1.83049C1.28846 2.27235 1.05762 2.87131 1.05641 3.49624V17.3682C1.05456 17.9458 1.25458 18.5029 1.61664 18.9285C1.26791 28.3474 1.05641 40.7616 1.05641 54.3602V367.46C1.05641 396.821 2.03914 420.692 3.24369 420.692H393.779C394.983 420.692 395.965 396.821 395.965 367.46V54.3602C395.965 40.7616 395.754 28.3474 395.406 18.9285C395.768 18.5028 395.967 17.9457 395.965 17.3682V3.49624Z" fill="white"/>
<path d="M393.779 421.832H3.24378C2.04994 421.832 1.32926 421.832 0.642902 405.137C0.228268 395.052 0 381.671 0 367.459V54.3604C0 41.2546 0.199254 28.6553 0.561136 18.8833C1.25563 1.52062e-05 2.04657 0 3.24378 0H393.779C394.976 0 395.767 0.00335187 396.461 18.8833C396.823 28.6464 397.022 41.2457 397.022 54.3604V367.459C397.022 381.672 396.794 395.053 396.379 405.137C395.693 421.832 394.972 421.832 393.779 421.832ZM3.8605 419.554H393.162C394.026 415.983 394.909 395.932 394.909 367.459V54.3604C394.909 41.2751 394.71 28.7076 394.35 18.9745C393.91 7.012 393.396 3.37114 393.151 2.27783H3.87198C3.6263 3.37119 3.1125 7.01146 2.67233 18.974C2.31161 28.717 2.113 41.284 2.113 54.3604V367.459C2.113 395.932 2.99583 415.982 3.8605 419.554Z" fill="#E4E4E4"/>
<path d="M393.779 1.13867H3.24369C2.66399 1.13988 2.10835 1.38864 1.69841 1.83049C1.28846 2.27235 1.05762 2.87131 1.05641 3.49624V17.3682C1.05456 17.9458 1.25458 18.5029 1.61664 18.9285C1.81966 19.1785 2.0698 19.3789 2.35037 19.5164C2.63093 19.6539 2.93547 19.7253 3.24366 19.7258H393.779C394.087 19.7253 394.391 19.6539 394.672 19.5164C394.952 19.3789 395.203 19.1785 395.406 18.9285C395.768 18.5028 395.967 17.9457 395.965 17.3682V3.49624C395.964 2.87138 395.733 2.27246 395.324 1.8306C394.914 1.38873 394.358 1.13992 393.779 1.13867Z" fill="#E1E1E1"/>
<path d="M13.7554 13.1032C15.4706 13.1032 16.8611 11.6042 16.8611 9.75521C16.8611 7.90617 15.4706 6.40723 13.7554 6.40723C12.0401 6.40723 10.6497 7.90617 10.6497 9.75521C10.6497 11.6042 12.0401 13.1032 13.7554 13.1032Z" fill="white"/>
<path d="M25.5437 13.1032C27.2589 13.1032 28.6494 11.6042 28.6494 9.75521C28.6494 7.90617 27.2589 6.40723 25.5437 6.40723C23.8285 6.40723 22.438 7.90617 22.438 9.75521C22.438 11.6042 23.8285 13.1032 25.5437 13.1032Z" fill="white"/>
<path d="M37.3325 13.1032C39.0477 13.1032 40.4382 11.6042 40.4382 9.75521C40.4382 7.90617 39.0477 6.40723 37.3325 6.40723C35.6173 6.40723 34.2268 7.90617 34.2268 9.75521C34.2268 11.6042 35.6173 13.1032 37.3325 13.1032Z" fill="white"/>
<path d="M382.231 5.28442H368.655C368.389 5.28442 368.133 5.39841 367.945 5.60132C367.757 5.80423 367.651 6.07943 367.651 6.36639C367.651 6.65335 367.757 6.92855 367.945 7.13146C368.133 7.33437 368.389 7.44837 368.655 7.44837H382.231C382.497 7.44837 382.752 7.33437 382.941 7.13146C383.129 6.92855 383.235 6.65335 383.235 6.36639C383.235 6.07943 383.129 5.80423 382.941 5.60132C382.752 5.39841 382.497 5.28442 382.231 5.28442Z" fill="white"/>
<path d="M382.231 9.35034H368.655C368.389 9.35034 368.133 9.46433 367.945 9.66724C367.757 9.87015 367.651 10.1454 367.651 10.4323C367.651 10.7193 367.757 10.9945 367.945 11.1974C368.133 11.4003 368.389 11.5143 368.655 11.5143H382.231C382.497 11.5143 382.752 11.4003 382.941 11.1974C383.129 10.9945 383.235 10.7193 383.235 10.4323C383.235 10.1454 383.129 9.87015 382.941 9.66724C382.752 9.46433 382.497 9.35034 382.231 9.35034Z" fill="white"/>
<path d="M382.231 13.4165H368.655C368.389 13.4165 368.133 13.5305 367.945 13.7334C367.757 13.9363 367.651 14.2115 367.651 14.4985C367.651 14.7854 367.757 15.0606 367.945 15.2635C368.133 15.4664 368.389 15.5805 368.655 15.5805H382.231C382.497 15.5805 382.752 15.4664 382.941 15.2635C383.129 15.0606 383.235 14.7854 383.235 14.4985C383.235 14.2115 383.129 13.9363 382.941 13.7334C382.752 13.5305 382.497 13.4165 382.231 13.4165Z" fill="white"/>
<path d="M129.474 70.6355H83.77C81.4789 70.6385 79.2823 71.6211 77.6623 73.3676C76.0422 75.1141 75.1309 77.482 75.1282 79.9519V122.627C75.1309 125.097 76.0422 127.465 77.6623 129.211C79.2823 130.958 81.4789 131.94 83.77 131.943H129.474C131.766 131.94 133.962 130.958 135.582 129.211C137.202 127.465 138.114 125.097 138.116 122.627V79.9519C138.114 77.482 137.202 75.1141 135.582 73.3676C133.962 71.6211 131.766 70.6385 129.474 70.6355Z" fill="#FFA800"/>
<path d="M317.985 87.1384H158.687C157.646 87.1384 156.647 87.5842 155.911 88.3777C155.175 89.1712 154.762 90.2473 154.762 91.3695C154.762 92.4916 155.175 93.5678 155.911 94.3613C156.647 95.1548 157.646 95.6006 158.687 95.6006H317.985C319.026 95.6006 320.025 95.1548 320.761 94.3613C321.497 93.5678 321.91 92.4916 321.91 91.3695C321.91 90.2473 321.497 89.1712 320.761 88.3777C320.025 87.5842 319.026 87.1384 317.985 87.1384Z" fill="#E4E4E4"/>
<path d="M219.192 106.967H158.687C157.646 106.967 156.647 107.413 155.911 108.206C155.175 109 154.762 110.076 154.762 111.198C154.762 112.32 155.175 113.396 155.911 114.19C156.647 114.983 157.646 115.429 158.687 115.429H219.192C220.233 115.429 221.232 114.983 221.968 114.19C222.704 113.396 223.117 112.32 223.117 111.198C223.117 110.076 222.704 109 221.968 108.206C221.232 107.413 220.233 106.967 219.192 106.967Z" fill="#E4E4E4"/>
<path d="M129.474 184.527H83.77C81.4789 184.53 79.2823 185.513 77.6623 187.259C76.0422 189.006 75.1309 191.374 75.1282 193.843V236.519C75.1309 238.989 76.0422 241.356 77.6623 243.103C79.2823 244.849 81.4789 245.832 83.77 245.835H129.474C131.766 245.832 133.962 244.849 135.582 243.103C137.202 241.356 138.114 238.989 138.116 236.519V193.843C138.114 191.374 137.202 189.006 135.582 187.259C133.962 185.513 131.766 184.53 129.474 184.527Z" fill="#FFA800"/>
<path d="M317.985 201.03H158.687C157.646 201.03 156.647 201.476 155.911 202.269C155.175 203.063 154.762 204.139 154.762 205.261C154.762 206.383 155.175 207.459 155.911 208.253C156.647 209.046 157.646 209.492 158.687 209.492H317.985C319.026 209.492 320.025 209.046 320.761 208.253C321.497 207.459 321.91 206.383 321.91 205.261C321.91 204.139 321.497 203.063 320.761 202.269C320.025 201.476 319.026 201.03 317.985 201.03Z" fill="#E4E4E4"/>
<path d="M219.192 220.858H158.687C157.646 220.858 156.647 221.304 155.911 222.098C155.175 222.891 154.762 223.967 154.762 225.089C154.762 226.212 155.175 227.288 155.911 228.081C156.647 228.875 157.646 229.321 158.687 229.321H219.192C220.233 229.321 221.232 228.875 221.968 228.081C222.704 227.288 223.117 226.212 223.117 225.089C223.117 223.967 222.704 222.891 221.968 222.098C221.232 221.304 220.233 220.858 219.192 220.858Z" fill="#E4E4E4"/>
<path d="M129.474 298.419H83.77C81.4789 298.422 79.2823 299.404 77.6623 301.151C76.0422 302.897 75.1309 305.265 75.1282 307.735V350.41C75.1309 352.88 76.0422 355.248 77.6623 356.994C79.2823 358.741 81.4789 359.723 83.77 359.727H129.474C131.766 359.723 133.962 358.741 135.582 356.994C137.202 355.248 138.114 352.88 138.116 350.41V307.735C138.114 305.265 137.202 302.897 135.582 301.151C133.962 299.404 131.766 298.422 129.474 298.419Z" fill="#FFA800"/>
<path d="M317.985 314.922H158.687C157.646 314.922 156.647 315.367 155.911 316.161C155.175 316.954 154.762 318.031 154.762 319.153C154.762 320.275 155.175 321.351 155.911 322.145C156.647 322.938 157.646 323.384 158.687 323.384H317.985C319.026 323.384 320.025 322.938 320.761 322.145C321.497 321.351 321.91 320.275 321.91 319.153C321.91 318.031 321.497 316.954 320.761 316.161C320.025 315.367 319.026 314.922 317.985 314.922Z" fill="#E4E4E4"/>
<path d="M219.192 334.75H158.687C157.646 334.75 156.647 335.196 155.911 335.989C155.175 336.783 154.762 337.859 154.762 338.981C154.762 340.103 155.175 341.179 155.911 341.973C156.647 342.766 157.646 343.212 158.687 343.212H219.192C220.233 343.212 221.232 342.766 221.968 341.973C222.704 341.179 223.117 340.103 223.117 338.981C223.117 337.859 222.704 336.783 221.968 335.989C221.232 335.196 220.233 334.75 219.192 334.75Z" fill="#E4E4E4"/>
<path d="M463.511 495.861H201.87C200.664 495.861 199.682 475.874 199.682 451.303V189.2C199.682 164.629 200.664 144.641 201.87 144.641H463.511C464.717 144.641 465.698 164.629 465.698 189.2V451.303C465.698 475.874 464.717 495.861 463.511 495.861Z" fill="white"/>
<path d="M463.511 497H201.87C200.763 497 199.963 497 199.269 482.857C198.854 474.411 198.626 463.206 198.626 451.303V189.2C198.626 177.297 198.854 166.091 199.269 157.647C199.963 143.502 200.763 143.502 201.87 143.502H463.511C464.618 143.502 465.417 143.502 466.112 157.647C466.526 166.091 466.755 177.297 466.755 189.2V451.303C466.755 463.206 466.526 474.411 466.112 482.857C465.417 497 464.618 497 463.511 497ZM202.455 494.722H462.926C463.684 491.772 464.642 476.051 464.642 451.303V189.2C464.642 164.452 463.684 148.731 462.926 145.78H202.455C201.696 148.731 200.739 164.452 200.739 189.2V451.303C200.739 476.051 201.696 491.772 202.455 494.722Z" fill="#E4E4E4"/>
<path d="M212.377 156.607C214.093 156.607 215.483 155.108 215.483 153.259C215.483 151.41 214.093 149.911 212.377 149.911C210.662 149.911 209.272 151.41 209.272 153.259C209.272 155.108 210.662 156.607 212.377 156.607Z" fill="white"/>
<path d="M235.954 156.607C237.67 156.607 239.06 155.108 239.06 153.259C239.06 151.41 237.67 149.911 235.954 149.911C234.239 149.911 232.849 151.41 232.849 153.259C232.849 155.108 234.239 156.607 235.954 156.607Z" fill="white"/>
<path d="M451.961 150.954H438.386C438.119 150.954 437.863 150.84 437.675 150.637C437.486 150.434 437.38 150.158 437.38 149.87C437.38 149.583 437.486 149.307 437.675 149.104C437.863 148.901 438.119 148.786 438.386 148.786H451.961C452.227 148.787 452.482 148.902 452.669 149.105C452.857 149.308 452.963 149.583 452.963 149.87C452.963 150.157 452.857 150.432 452.669 150.636C452.482 150.839 452.227 150.953 451.961 150.954Z" fill="white"/>
<path d="M451.961 155.019H438.386C438.119 155.019 437.863 154.905 437.675 154.702C437.486 154.498 437.38 154.223 437.38 153.935C437.38 153.648 437.486 153.372 437.675 153.169C437.863 152.965 438.119 152.851 438.386 152.851H451.961C452.227 152.851 452.483 152.965 452.671 153.169C452.86 153.372 452.966 153.648 452.966 153.935C452.966 154.223 452.86 154.498 452.671 154.702C452.483 154.905 452.227 155.019 451.961 155.019Z" fill="white"/>
<path d="M451.961 159.084H438.386C438.119 159.084 437.863 158.97 437.675 158.766C437.486 158.563 437.38 158.287 437.38 158C437.38 157.712 437.486 157.437 437.675 157.233C437.863 157.03 438.119 156.916 438.386 156.916H451.961C452.227 156.917 452.482 157.032 452.669 157.235C452.857 157.438 452.963 157.713 452.963 158C452.963 158.287 452.857 158.562 452.669 158.765C452.482 158.968 452.227 159.083 451.961 159.084Z" fill="white"/>
<path d="M282.269 249.328H248.891C247.217 249.326 245.613 248.608 244.43 247.332C243.246 246.057 242.581 244.327 242.579 242.523V211.359C242.581 209.555 243.246 207.825 244.43 206.549C245.613 205.274 247.217 204.556 248.891 204.554H282.269C283.943 204.556 285.547 205.274 286.73 206.549C287.914 207.825 288.579 209.555 288.581 211.359V242.523C288.579 244.327 287.914 246.057 286.73 247.332C285.547 248.608 283.943 249.326 282.269 249.328Z" fill="#FFA800"/>
<path d="M419.936 222.79H303.604C302.844 222.79 302.115 222.464 301.578 221.885C301.04 221.306 300.739 220.52 300.739 219.701C300.739 218.881 301.04 218.096 301.578 217.516C302.115 216.937 302.844 216.611 303.604 216.611H419.936C420.696 216.611 421.425 216.937 421.962 217.516C422.5 218.096 422.802 218.881 422.802 219.701C422.802 220.52 422.5 221.306 421.962 221.885C421.425 222.464 420.696 222.79 419.936 222.79Z" fill="#E4E4E4"/>
<path d="M347.789 237.27H303.604C302.844 237.27 302.115 236.945 301.578 236.365C301.04 235.786 300.739 235 300.739 234.181C300.739 233.362 301.04 232.576 301.578 231.996C302.115 231.417 302.844 231.092 303.604 231.092H347.789C348.166 231.091 348.539 231.17 348.887 231.325C349.235 231.48 349.552 231.707 349.819 231.994C350.085 232.281 350.297 232.622 350.441 232.997C350.586 233.372 350.66 233.775 350.66 234.181C350.66 234.587 350.586 234.989 350.441 235.364C350.297 235.74 350.085 236.08 349.819 236.367C349.552 236.654 349.235 236.882 348.887 237.037C348.539 237.192 348.166 237.271 347.789 237.27Z" fill="#E4E4E4"/>
<path d="M282.269 341.58H248.891C247.217 341.577 245.613 340.86 244.43 339.584C243.246 338.309 242.581 336.579 242.579 334.775V303.611C242.581 301.807 243.246 300.077 244.43 298.801C245.613 297.526 247.217 296.808 248.891 296.806H282.269C283.943 296.808 285.547 297.526 286.73 298.801C287.914 300.077 288.579 301.807 288.581 303.611V334.775C288.579 336.579 287.914 338.309 286.73 339.584C285.547 340.86 283.943 341.577 282.269 341.58Z" fill="#FFA800"/>
<path d="M419.936 315.042H303.604C302.844 315.042 302.115 314.717 301.578 314.137C301.04 313.558 300.739 312.772 300.739 311.953C300.739 311.134 301.04 310.348 301.578 309.769C302.115 309.189 302.844 308.864 303.604 308.864H419.936C420.696 308.864 421.425 309.189 421.962 309.769C422.5 310.348 422.802 311.134 422.802 311.953C422.802 312.772 422.5 313.558 421.962 314.137C421.425 314.717 420.696 315.042 419.936 315.042Z" fill="#E4E4E4"/>
<path d="M347.789 329.522H303.604C302.844 329.522 302.115 329.197 301.578 328.617C301.04 328.038 300.739 327.252 300.739 326.433C300.739 325.613 301.04 324.828 301.578 324.248C302.115 323.669 302.844 323.344 303.604 323.344H347.789C348.166 323.343 348.539 323.422 348.887 323.577C349.235 323.732 349.552 323.959 349.819 324.246C350.085 324.533 350.297 324.874 350.441 325.249C350.586 325.624 350.66 326.027 350.66 326.433C350.66 326.839 350.586 327.241 350.441 327.616C350.297 327.992 350.085 328.332 349.819 328.619C349.552 328.906 349.235 329.134 348.887 329.289C348.539 329.443 348.166 329.523 347.789 329.522Z" fill="#E4E4E4"/>
<path d="M282.269 433.832H248.891C247.217 433.83 245.613 433.112 244.43 431.837C243.246 430.561 242.581 428.831 242.579 427.027V395.863C242.581 394.059 243.246 392.329 244.43 391.054C245.613 389.778 247.217 389.061 248.891 389.059H282.269C283.943 389.061 285.547 389.778 286.73 391.054C287.914 392.329 288.579 394.059 288.581 395.863V427.027C288.579 428.831 287.914 430.561 286.73 431.837C285.547 433.112 283.943 433.83 282.269 433.832Z" fill="#FFA800"/>
<path d="M419.936 407.294H303.604C302.844 407.294 302.115 406.969 301.578 406.389C301.04 405.81 300.739 405.024 300.739 404.205C300.739 403.386 301.04 402.6 301.578 402.021C302.115 401.441 302.844 401.116 303.604 401.116H419.936C420.696 401.116 421.425 401.441 421.962 402.021C422.5 402.6 422.802 403.386 422.802 404.205C422.802 405.024 422.5 405.81 421.962 406.389C421.425 406.969 420.696 407.294 419.936 407.294Z" fill="#E4E4E4"/>
<path d="M347.789 421.774H303.604C302.844 421.774 302.115 421.449 301.578 420.869C301.04 420.29 300.739 419.504 300.739 418.685C300.739 417.866 301.04 417.08 301.578 416.501C302.115 415.921 302.844 415.596 303.604 415.596H347.789C348.166 415.595 348.539 415.674 348.887 415.829C349.235 415.984 349.552 416.211 349.819 416.498C350.085 416.785 350.297 417.126 350.441 417.501C350.586 417.877 350.66 418.279 350.66 418.685C350.66 419.091 350.586 419.493 350.441 419.869C350.297 420.244 350.085 420.585 349.819 420.871C349.552 421.158 349.235 421.386 348.887 421.541C348.539 421.696 348.166 421.775 347.789 421.774Z" fill="#E4E4E4"/>
<path d="M659.355 549.55H327.63C326.441 549.549 325.301 549.094 324.46 548.284C323.62 547.474 323.147 546.376 323.145 545.23V347.317H663.839V545.23C663.838 546.376 663.365 547.474 662.524 548.284C661.684 549.094 660.544 549.549 659.355 549.55Z" fill="#E6E6E6"/>
<path d="M649.628 537.183H337.357C336.155 537.181 335.003 536.721 334.153 535.902C333.303 535.083 332.825 533.973 332.823 532.816V369.827C332.825 368.669 333.303 367.559 334.153 366.74C335.003 365.922 336.155 365.461 337.357 365.46H649.628C650.83 365.461 651.982 365.922 652.832 366.74C653.682 367.559 654.16 368.669 654.161 369.827V532.816C654.16 533.973 653.682 535.083 652.832 535.902C651.982 536.721 650.83 537.181 649.628 537.183Z" fill="white"/>
<path d="M663.694 353.429H323V343.32C323.001 342.175 323.474 341.077 324.315 340.267C325.156 339.457 326.296 339.001 327.485 339H659.209C660.398 339.001 661.538 339.457 662.379 340.267C663.22 341.077 663.693 342.175 663.694 343.32L663.694 353.429Z" fill="#FFA800"/>
<path d="M334.003 348.951C335.482 348.951 336.681 347.796 336.681 346.371C336.681 344.946 335.482 343.791 334.003 343.791C332.524 343.791 331.324 344.946 331.324 346.371C331.324 347.796 332.524 348.951 334.003 348.951Z" fill="white"/>
<path d="M344.17 348.951C345.649 348.951 346.848 347.796 346.848 346.371C346.848 344.946 345.649 343.791 344.17 343.791C342.691 343.791 341.491 344.946 341.491 346.371C341.491 347.796 342.691 348.951 344.17 348.951Z" fill="white"/>
<path d="M354.337 348.951C355.816 348.951 357.015 347.796 357.015 346.371C357.015 344.946 355.816 343.791 354.337 343.791C352.857 343.791 351.658 344.946 351.658 346.371C351.658 347.796 352.857 348.951 354.337 348.951Z" fill="white"/>
<path d="M397.102 394.686H364.917V408.409H397.102V394.686Z" fill="#E6E6E6"/>
<path d="M461.471 423.148H429.287V436.87H461.471V423.148Z" fill="#E6E6E6"/>
<path d="M397.102 465.84H364.917V479.562H397.102V465.84Z" fill="#FFA800"/>
<path d="M461.471 494.301H429.287V508.023H461.471V494.301Z" fill="#FFA800"/>
<path d="M621.866 508.531H589.681V522.254H621.866V508.531Z" fill="#FFA800"/>
<path d="M589.682 451.609H557.497V465.331H589.682V451.609Z" fill="#E6E6E6"/>
<path d="M525.84 451.609H461.471V465.331H525.84V451.609Z" fill="#FFA800"/>
<path d="M525.84 379.948H461.471V393.67H525.84V379.948Z" fill="#FFA800"/>
<path d="M332.733 365.209V537.501H654.578V365.208L332.733 365.209ZM653.523 379.482H622.499V366.225H653.523V379.482ZM462.104 479.392V466.136H525.207V479.392H462.104ZM525.207 480.409V493.665H462.104V480.409H525.207ZM525.207 423.317V436.573H462.104V423.317H525.207ZM462.104 422.301V409.044H525.207V422.301H462.104ZM462.104 450.846V437.59H525.207V450.846H462.104ZM525.207 451.863V465.12H462.104V451.863H525.207ZM461.049 436.573H430.025V423.317H461.049V436.573ZM461.049 437.59V450.846H430.025V437.59H461.049ZM461.049 451.863V465.12H430.025V451.863H461.049ZM461.049 466.136V479.392H430.025V466.136H461.049ZM526.262 466.136H557.286V479.392H526.262L526.262 466.136ZM526.262 465.12V451.863H557.286V465.12H526.262ZM526.262 450.846V437.59H557.286V450.846H526.262ZM526.262 436.573V423.317H557.286V436.573H526.262ZM526.262 422.301V409.044H557.286V422.301H526.262ZM526.262 408.027V394.771H557.286V408.027H526.262ZM525.207 408.027H462.104V394.771H525.207L525.207 408.027ZM461.049 408.027H430.025V394.771H461.049V408.027ZM461.049 409.044V422.301H430.025V409.044H461.049ZM428.97 422.301H397.946V409.044H428.97L428.97 422.301ZM428.97 423.317V436.573H397.946V423.317H428.97ZM428.97 437.59V450.846H397.946V437.59H428.97ZM428.97 451.863V465.12H397.946V451.863H428.97ZM428.97 466.136V479.392H397.946V466.136H428.97ZM428.97 480.409V493.665H397.946V480.409H428.97ZM430.025 480.409H461.049V493.665H430.025V480.409ZM461.049 494.682V507.938H430.025V494.682H461.049ZM462.104 494.682H525.207V507.938H462.104V494.682ZM526.262 494.682H557.286V507.938H526.262L526.262 494.682ZM526.262 493.665V480.409H557.286V493.665H526.262ZM558.341 480.409H589.365V493.665H558.341L558.341 480.409ZM558.341 479.392V466.136H589.365V479.392H558.341ZM558.341 465.12V451.863H589.365V465.12H558.341ZM558.341 450.846V437.59H589.365V450.846H558.341ZM558.341 436.573V423.317H589.365V436.573H558.341ZM558.341 422.301V409.044H589.365V422.301H558.341ZM558.341 408.027V394.771H589.365V408.027H558.341ZM558.341 393.754V380.498H589.365V393.754H558.341ZM557.286 393.754H526.262V380.498H557.286L557.286 393.754ZM525.207 393.754H462.104V380.498H525.207L525.207 393.754ZM461.049 393.754H430.025V380.498H461.049V393.754ZM428.97 393.754H397.946V380.498H428.97L428.97 393.754ZM428.97 394.771V408.027H397.946V394.771H428.97ZM396.891 408.027H365.867V394.771H396.891V408.027ZM396.891 409.044V422.301H365.867V409.044H396.891ZM396.891 423.317V436.573H365.867V423.317H396.891ZM396.891 437.59V450.846H365.867V437.59H396.891ZM396.891 451.863V465.12H365.867V451.863H396.891ZM396.891 466.136V479.392H365.867V466.136H396.891ZM396.891 480.409V493.665H365.867V480.409H396.891ZM396.891 494.682V507.938H365.867V494.682H396.891ZM397.946 494.682H428.97V507.938H397.946L397.946 494.682ZM428.97 508.955V522.212H397.946V508.955H428.97ZM430.025 508.955H461.049V522.212H430.025V508.955ZM462.104 508.955H525.207V522.212H462.104V508.955ZM526.262 508.955H557.286V522.212H526.262L526.262 508.955ZM558.341 508.955H589.365V522.212H558.341L558.341 508.955ZM558.341 507.938V494.682H589.365V507.938H558.341ZM590.42 494.682H621.444V507.938H590.42V494.682ZM590.42 493.665V480.409H621.444V493.665H590.42ZM590.42 479.392V466.136H621.444V479.392H590.42ZM590.42 465.12V451.863H621.444V465.12H590.42ZM590.42 450.846V437.59H621.444V450.846H590.42ZM590.42 436.573V423.317H621.444V436.573H590.42ZM590.42 422.301V409.044H621.444V422.301H590.42ZM590.42 408.027V394.771H621.444V408.027H590.42ZM590.42 393.754V380.498H621.444V393.754H590.42ZM590.42 379.482V366.225H621.444V379.482L590.42 379.482ZM589.365 379.482H558.341V366.225H589.365L589.365 379.482ZM557.286 379.482H526.262V366.225H557.286L557.286 379.482ZM525.207 379.482H462.104V366.225H525.207L525.207 379.482ZM461.049 379.482H430.025V366.225H461.049V379.482ZM428.97 379.482H397.946V366.225H428.97L428.97 379.482ZM396.891 379.482H365.867V366.225H396.891V379.482ZM396.891 380.498V393.754H365.867V380.498H396.891ZM364.812 393.754H333.788V380.498H364.812L364.812 393.754ZM364.812 394.771V408.027H333.788V394.771H364.812ZM364.812 409.044V422.301H333.788V409.044H364.812ZM364.812 423.317V436.573H333.788V423.317H364.812ZM364.812 437.59V450.846H333.788V437.59H364.812ZM364.812 451.863V465.12H333.788V451.863H364.812ZM364.812 466.136V479.392H333.788V466.136H364.812ZM364.812 480.409V493.665H333.788V480.409H364.812ZM364.812 494.682V507.938H333.788V494.682H364.812ZM364.812 508.955V522.212H333.788V508.955H364.812ZM365.867 508.955H396.891V522.212H365.867L365.867 508.955ZM396.891 523.228V536.484H365.867V523.228H396.891ZM397.946 523.228H428.97V536.484H397.946L397.946 523.228ZM430.025 523.228H461.049V536.484H430.025L430.025 523.228ZM462.104 523.228H525.207V536.484H462.104L462.104 523.228ZM526.262 523.228H557.286V536.484H526.262V523.228ZM558.341 523.228H589.365V536.484H558.341L558.341 523.228ZM590.42 523.228H621.444V536.484H590.42V523.228ZM590.42 522.212V508.955H621.444V522.212H590.42ZM622.499 508.955H653.523V522.212H622.499V508.955ZM622.499 507.938V494.682H653.523V507.938H622.499ZM622.499 493.665V480.409H653.523V493.665H622.499ZM622.499 479.392V466.136H653.523V479.392H622.499ZM622.499 465.12V451.863H653.523V465.12H622.499ZM622.499 450.846V437.59H653.523V450.846H622.499ZM622.499 436.573V423.317H653.523V436.573H622.499ZM622.499 422.301V409.044H653.523V422.301H622.499ZM622.499 408.027V394.771H653.523V408.027H622.499ZM622.499 393.754V380.498H653.523V393.754H622.499ZM364.812 366.225V379.482H333.788V366.225H364.812ZM333.788 523.228H364.812V536.484H333.788V523.228ZM622.499 536.484V523.228H653.523V536.484H622.499Z" fill="#E6E6E6"/>
<path d="M224.883 491.427L102.628 535.757C101.105 536.307 99.4414 536.187 98.0015 535.422C96.5617 534.658 95.4632 533.312 94.9471 531.68L38.3172 351.911C37.8045 350.277 37.9167 348.492 38.6292 346.947C39.3416 345.403 40.5961 344.224 42.1175 343.67L164.372 299.34C165.895 298.79 167.559 298.911 168.998 299.675C170.438 300.439 171.537 301.785 172.053 303.418L228.683 483.187C229.195 484.82 229.083 486.605 228.371 488.15C227.658 489.695 226.404 490.873 224.883 491.427Z" fill="#E6E6E6"/>
<path d="M221.763 488.107L103.231 531.087C102.202 531.459 101.078 531.377 100.105 530.861C99.1325 530.344 98.3903 529.435 98.0416 528.332L42.6701 352.558C42.3237 351.454 42.3995 350.248 42.8809 349.204C43.3623 348.161 44.2099 347.364 45.2379 346.99L163.769 304.01C164.798 303.639 165.922 303.72 166.895 304.236C167.868 304.753 168.61 305.662 168.959 306.765L224.33 482.539C224.677 483.643 224.601 484.849 224.12 485.893C223.638 486.937 222.79 487.733 221.763 488.107Z" fill="white"/>
<path d="M191.965 543H62.9163C61.3098 542.998 59.7696 542.313 58.6337 541.094C57.4977 539.875 56.8587 538.223 56.8569 536.499V346.74C56.8587 345.017 57.4977 343.364 58.6337 342.146C59.7696 340.927 61.3098 340.241 62.9163 340.24H191.965C193.571 340.241 195.111 340.927 196.247 342.146C197.383 343.364 198.022 345.017 198.024 346.74V536.499C198.022 538.223 197.383 539.875 196.247 541.094C195.111 542.313 193.571 542.998 191.965 543Z" fill="#CCCCCC"/>
<path d="M190 538.783H64.8815C63.7961 538.782 62.7554 538.319 61.9879 537.495C61.2203 536.672 60.7886 535.555 60.7874 534.391V348.849C60.7886 347.685 61.2203 346.568 61.9879 345.745C62.7554 344.921 63.7961 344.458 64.8815 344.457H190C191.085 344.458 192.126 344.921 192.893 345.745C193.661 346.568 194.093 347.685 194.094 348.849V534.391C194.093 535.555 193.661 536.672 192.893 537.495C192.126 538.319 191.085 538.782 190 538.783Z" fill="white"/>
<path d="M163.346 397.089H80.7081C80.012 397.089 79.3443 396.792 78.8521 396.264C78.3598 395.736 78.0833 395.02 78.0833 394.273C78.0833 393.526 78.3598 392.81 78.8521 392.281C79.3443 391.753 80.012 391.457 80.7081 391.457H163.346C164.042 391.457 164.709 391.753 165.202 392.281C165.694 392.81 165.971 393.526 165.971 394.273C165.971 395.02 165.694 395.736 165.202 396.264C164.709 396.792 164.042 397.089 163.346 397.089Z" fill="#CCCCCC"/>
<path d="M174.173 406.594H80.7081C80.3634 406.594 80.0221 406.521 79.7037 406.379C79.3852 406.238 79.0958 406.03 78.8521 405.769C78.6083 405.507 78.415 405.197 78.2831 404.855C78.1511 404.513 78.0833 404.147 78.0833 403.777C78.0833 403.408 78.1511 403.041 78.2831 402.7C78.415 402.358 78.6083 402.048 78.8521 401.786C79.0958 401.525 79.3852 401.317 79.7037 401.176C80.0221 401.034 80.3634 400.961 80.7081 400.961H174.173C174.869 400.961 175.537 401.258 176.029 401.786C176.522 402.314 176.798 403.03 176.798 403.777C176.798 404.524 176.522 405.241 176.029 405.769C175.537 406.297 174.869 406.594 174.173 406.594Z" fill="#CCCCCC"/>
<path d="M163.346 439.683H80.7082C80.0125 439.683 79.3456 439.386 78.854 438.857C78.3623 438.329 78.0862 437.614 78.0862 436.867C78.0862 436.121 78.3623 435.405 78.854 434.877C79.3456 434.349 80.0125 434.052 80.7082 434.051H163.346C164.042 434.051 164.709 434.348 165.202 434.876C165.694 435.404 165.971 436.12 165.971 436.867C165.971 437.614 165.694 438.33 165.202 438.859C164.709 439.387 164.042 439.683 163.346 439.683Z" fill="#FFA800"/>
<path d="M174.173 449.188H80.7082C80.0125 449.187 79.3456 448.89 78.854 448.362C78.3623 447.834 78.0862 447.118 78.0862 446.372C78.0862 445.626 78.3623 444.91 78.854 444.382C79.3456 443.854 80.0125 443.557 80.7082 443.556H174.173C174.869 443.556 175.537 443.853 176.029 444.381C176.522 444.909 176.798 445.625 176.798 446.372C176.798 447.119 176.522 447.835 176.029 448.363C175.537 448.892 174.869 449.188 174.173 449.188Z" fill="#CCCCCC"/>
<path d="M163.346 482.278H80.7082C80.0125 482.278 79.3456 481.98 78.854 481.452C78.3623 480.924 78.0862 480.209 78.0862 479.462C78.0862 478.716 78.3623 478 78.854 477.472C79.3456 476.944 80.0125 476.647 80.7082 476.646H163.346C164.042 476.646 164.709 476.943 165.202 477.471C165.694 477.999 165.971 478.715 165.971 479.462C165.971 480.209 165.694 480.925 165.202 481.454C164.709 481.982 164.042 482.278 163.346 482.278Z" fill="#CCCCCC"/>
<path d="M174.173 491.784H80.7081C80.012 491.784 79.3443 491.487 78.8521 490.959C78.3598 490.431 78.0833 489.714 78.0833 488.967C78.0833 488.22 78.3598 487.504 78.8521 486.976C79.3443 486.448 80.012 486.151 80.7081 486.151H174.173C174.869 486.151 175.537 486.448 176.029 486.976C176.522 487.504 176.798 488.22 176.798 488.967C176.798 489.714 176.522 490.431 176.029 490.959C175.537 491.487 174.869 491.784 174.173 491.784Z" fill="#CCCCCC"/>
</svg>
