<svg width="260" height="66" viewBox="0 0 260 66" fill="none" xmlns="http://www.w3.org/2000/svg">
<path fill-rule="evenodd" clip-rule="evenodd" d="M0 26.1216L3 22.1216C6 18.1216 12 10.1216 17 12.1216C23 13.1216 29 23.1216 35 22.1216C40 21.1216 46 8.12156 52 3.12156C58 -2.87844 64 0.121555 69 9.12156C75 18.1216 81 34.1216 87 43.1216C92 52.1216 98 55.1216 104 49.1216C110 44.1216 116 31.1216 121 30.1216C127 29.1216 133 39.1216 139 40.1216C144 42.1216 150 34.1216 156 34.1216C162 34.1216 168 42.1216 173 47.1216C179 52.1216 185 55.1216 191 49.1216C196 44.1216 202 31.1216 208 20.1216C214 8.12156 220 -2.87844 225 3.12156C231 8.12156 237 29.1216 243 34.1216C248 39.1216 254 29.1216 257 23.1216L260 18.1216V65.1216H257C254 65.1216 248 65.1216 243 65.1216C237 65.1216 231 65.1216 225 65.1216C220 65.1216 214 65.1216 208 65.1216C202 65.1216 196 65.1216 191 65.1216C185 65.1216 179 65.1216 173 65.1216C168 65.1216 162 65.1216 156 65.1216C150 65.1216 144 65.1216 139 65.1216C133 65.1216 127 65.1216 121 65.1216C116 65.1216 110 65.1216 104 65.1216C98 65.1216 92 65.1216 87 65.1216C81 65.1216 75 65.1216 69 65.1216C64 65.1216 58 65.1216 52 65.1216C46 65.1216 40 65.1216 35 65.1216C29 65.1216 23 65.1216 17 65.1216C12 65.1216 6 65.1216 3 65.1216H0V26.1216Z" fill="#02242B"/>
</svg>
