<svg width="260" height="66" viewBox="0 0 260 66" fill="none" xmlns="http://www.w3.org/2000/svg">
<path fill-rule="evenodd" clip-rule="evenodd" d="M260 39L257 43C254 47 248 55 243 53C237 52 231 42 225 43C220 44 214 57 208 62C202 68 196 65 191 56C185 47 179 31 173 22C168 13 162 10 156 16C150 21 144 34 139 35C133 36 127 26 121 25C116 23 110 31 104 31C98 31 92 23 87 18C81 13 75 10 69 16C64 21 58 34 52 45C46 57 40 68 35 62C29 57 23 36 17 31C12 26 6 36 3 42L0 47V0H3C6 0 12 0 17 0C23 0 29 0 35 0C40 0 46 0 52 0C58 0 64 0 69 0C75 0 81 0 87 0C92 0 98 0 104 0C110 0 116 0 121 0C127 0 133 0 139 0C144 0 150 0 156 0C162 0 168 0 173 0C179 0 185 0 191 0C196 0 202 0 208 0C214 0 220 0 225 0C231 0 237 0 243 0C248 0 254 0 257 0H260V39Z" fill="#02242B"/>
</svg>
