<svg width="124" height="1024" viewBox="0 0 124 1024" fill="none" xmlns="http://www.w3.org/2000/svg">
<path d="M62 963.551C-18 1066.13 -18 1035.96 62 873.041C142 710.123 142 679.952 62 782.531C-18 885.109 -18 854.939 62 692.021C142 529.102 142 498.932 62 601.51C-18 704.089 -18 673.918 62 511C142 348.082 142 317.911 62 420.49C-18 523.068 -18 492.898 62 329.979C142 167.061 142 136.891 62 239.469C-18 342.048 -18 311.877 62 148.959C142 -13.9594 142 -44.1295 62 58.4488" stroke="#0C282E" stroke-width="3"/>
</svg>
