<svg width="21" height="22" viewBox="0 0 17 22" fill="none" xmlns="http://www.w3.org/2000/svg">
<path d="M12.166 2.68C12.0327 2.19621 11.7489 1.77031 11.358 1.46706C10.967 1.16381 10.4902 0.999814 10 1H7C5.97 1 5.1 1.71077 4.834 2.68M12.166 2.68C12.221 2.87897 12.25 3.09026 12.25 3.30769C12.25 3.51171 12.171 3.70736 12.0303 3.85162C11.8897 3.99588 11.6989 4.07692 11.5 4.07692H5.5C5.30109 4.07692 5.11032 3.99588 4.96967 3.85162C4.82902 3.70736 4.75 3.51171 4.75 3.30769C4.75 3.09026 4.78 2.87897 4.834 2.68M12.166 2.68C12.812 2.73026 13.454 2.79282 14.093 2.86872C15.193 3 16 3.97333 16 5.10974V18.6923C16 19.3043 15.7629 19.8913 15.341 20.3241C14.919 20.7569 14.3467 21 13.75 21H3.25C2.65326 21 2.08097 20.7569 1.65901 20.3241C1.23705 19.8913 1 19.3043 1 18.6923V5.10974C1 3.97333 1.806 3 2.907 2.86872C3.54804 2.79259 4.1905 2.72967 4.834 2.68" stroke="#F2F2F2" stroke-width="1.5" stroke-linecap="round" stroke-linejoin="round"/>
</svg>
