<svg width="22" height="23" viewBox="0 0 22 23" fill="none" xmlns="http://www.w3.org/2000/svg">
<path d="M8.27273 8.40365V4.2207C8.27273 3.55507 8.56006 2.9167 9.07153 2.44603C9.58299 1.97536 10.2767 1.71094 11 1.71094H18.2727C18.996 1.71094 19.6897 1.97536 20.2012 2.44603C20.7127 2.9167 21 3.55507 21 4.2207V19.2793C21 19.9449 20.7127 20.5833 20.2012 21.054C19.6897 21.5246 18.996 21.7891 18.2727 21.7891H11C10.2767 21.7891 9.58299 21.5246 9.07153 21.054C8.56006 20.5833 8.27273 19.9449 8.27273 19.2793V15.0964M4.63636 15.0964L1 11.75M1 11.75L4.63636 8.40365M1 11.75H16.4545" stroke="white" stroke-width="1.5" stroke-linecap="round" stroke-linejoin="round"/>
</svg>
